<svg xmlns="http://www.w3.org/2000/svg" version="1.1" xmlns:xlink="http://www.w3.org/1999/xlink" xmlns:svgjs="http://svgjs.com/svgjs" width="1440" height="560" preserveAspectRatio="none" viewBox="0 0 1440 560"><g mask="url(&quot;#SvgjsMask1000&quot;)" fill="none"><rect width="1440" height="560" x="0" y="0" fill="#0e2a47"></rect><path d="M280 112C269.86 112 275.76 127.01 275.76 140C275.76 142.26 277.56 142.5 280 142.5C314.68 142.5 350 147.34 350 140C350 132.09 306.98 112 280 112" stroke="rgba(51, 121, 194, 0.58)" stroke-width="2"></path><path d="M560 74.67C497.25 76.4 437.5 116.36 437.5 140C437.5 161.27 498.4 163.19 560 164.5C629.65 165.99 634.83 130.94 700 145.6C774.83 162.44 780.4 229.21 840 227.5C878.03 226.41 895.26 181.65 895.26 140C895.26 106.08 874.98 77.66 840 76.36C777.35 74.04 769.85 133.18 700 132.76C629.85 132.34 628.5 72.78 560 74.67" stroke="rgba(51, 121, 194, 0.58)" stroke-width="2"></path><path d="M1093.51 0C1111.57 3.77 1102.11 29.25 1120 29.25C1180.69 29.25 1185.23 13.67 1250.67 0C1255.23 -0.95 1255.34 0 1260 0C1263.18 0 1263.26 -0.69 1266.36 0C1333.26 14.95 1333.8 31.28 1400 31.28C1449.62 31.28 1448.29 11.11 1498 0C1518.29 -4.53 1535.15 -16.15 1540 0C1556.15 53.85 1540 70 1540 140C1540 210 1540 210 1540 280C1540 350 1540 350 1540 420C1540 490 1575 525 1540 560C1505 595 1470 560 1400 560C1338.75 560 1336.99 565.41 1277.5 560C1266.99 559.04 1267.01 547.27 1260 547.27C1255.51 547.27 1261.05 559.41 1254.51 560C1191.05 565.77 1187.26 560 1120 560C1050 560 1050 560 980 560C930.46 560 919.42 579.25 880.92 560C849.42 544.25 871.87 493.31 840 490C781.41 483.92 767.8 511.87 700 541.22C686.95 546.87 691.97 558.17 678.31 560C621.97 567.56 619.15 560 560 560C490 560 490 560 420 560C350 560 350 560 280 560C210 560 210 560 140 560C70 560 35 595 0 560C-35 525 0 490 0 420C0 350 0 350 0 280C0 210 0 210 0 140C0 70 -35 35 0 0C35 -35 70 0 140 0C210 0 210 0 280 0C350 0 350 0 420 0C490 0 490 0 560 0C630 0 630 0 700 0C770 0 770 0 840 0C910 0 910 0 980 0C1036.76 0 1041.57 -10.85 1093.51 0" stroke="rgba(51, 121, 194, 0.58)" stroke-width="2"></path><path d="M140 377.07C117.15 377.07 94 394.26 94 420C94 463.08 117.26 514.71 140 514.71C162.62 514.71 184.72 463.23 184.72 420C184.72 394.41 162.51 377.07 140 377.07" stroke="rgba(51, 121, 194, 0.58)" stroke-width="2"></path><path d="M1120 350C1072.35 350 1016.52 391.75 1016.52 420C1016.52 444.78 1069.85 456.06 1120 456.06C1153.75 456.06 1184.32 443.17 1184.32 420C1184.32 390.14 1156.25 350 1120 350" stroke="rgba(51, 121, 194, 0.58)" stroke-width="2"></path><path d="M1400 356.36C1373.47 356.36 1353.33 388.67 1353.33 420C1353.33 449.66 1373.72 478.33 1400 478.33C1432.05 478.33 1470 449.92 1470 420C1470 388.93 1431.8 356.36 1400 356.36" stroke="rgba(51, 121, 194, 0.58)" stroke-width="2"></path><path d="M0 41.48C6.22 16.62 11.15 7.07 35 0C81.15 -13.67 87.5 0 140 0C188.69 0 231.67 -26.96 237.39 0C246.52 43.04 158.02 83.78 169.7 140C179.32 186.28 220.25 190.93 280 205C345.4 220.4 352.31 187.59 420 198.95C492.31 211.09 490.58 253.66 560 252C630.58 250.32 635.54 184.89 700 192.27C757.76 198.89 774.03 224.08 804.44 280C835.95 337.95 849.48 366.37 823.85 420C797.26 475.64 759.39 455.86 700 498.54C661.97 525.86 669.36 542.29 629.01 560C599.36 573.02 594.51 560 560 560C490 560 490 560 420 560C350 560 350 560 280 560C226.89 560 183.38 588.78 173.79 560C160.05 518.78 242.46 482.04 233.33 420C225.57 367.24 186.98 330.4 140 330.4C92.32 330.4 51.94 366.97 44 420C34.75 481.77 118.62 518.59 105.61 560C96.62 588.59 22.71 590.1 0 560C-30.1 520.1 0 490 0 420C0 350 0 350 0 280C0 210 0 210 0 140C0 90.74 -11.28 86.62 0 41.48" stroke="rgba(51, 121, 194, 0.58)" stroke-width="2"></path><path d="M420 93.97C370.31 93.97 322 27.29 322 0C322 -19.7 371 0 420 0C471.97 0 523.94 -20.01 523.94 0C523.94 26.98 471.28 93.97 420 93.97" stroke="rgba(51, 121, 194, 0.58)" stroke-width="2"></path><path d="M700 72.41C653.27 72.41 610.64 20.37 610.64 0C610.64 -15.83 655.32 0 700 0C756.76 0 813.51 -16.56 813.51 0C813.51 19.64 754.7 72.41 700 72.41" stroke="rgba(51, 121, 194, 0.58)" stroke-width="2"></path><path d="M980 132.43C921.02 66.89 863.33 39.86 863.33 0C863.33 -26.35 921.66 0 980 0C1013.11 0 1019.9 -15.32 1046.22 0C1089.9 25.43 1080.08 44.02 1120 81.49C1154.66 114.02 1195.38 104.95 1195.38 140C1195.38 188.65 1158.97 195.43 1120 248.89C1107.94 265.43 1108.79 266.65 1093.33 280C1038.79 327.11 1034.73 369.81 980 369.81C930.46 369.81 884.8 329.45 884.8 280C884.8 218.44 931.36 212.92 980 147.78C983.63 142.92 989.33 143.86 989.33 140C989.33 136.18 984.02 136.89 980 132.43" stroke="rgba(51, 121, 194, 0.58)" stroke-width="2"></path><path d="M1306.67 140C1306.67 99.24 1351.94 68.51 1400 68.51C1453.69 68.51 1464.38 96.1 1510.16 140C1534.38 163.23 1532.93 169.61 1540 202.76C1547.85 239.61 1540 241.38 1540 280C1540 316.13 1555.68 352.26 1540 352.26C1517.06 352.26 1505 310.81 1462.76 280C1435 259.76 1425.36 272.9 1400 250.16C1347.31 202.9 1306.67 190.06 1306.67 140" stroke="rgba(51, 121, 194, 0.58)" stroke-width="2"></path><path d="M934.77 560C934.77 535.89 944.96 496.13 980 486.5C1037.58 470.68 1055.14 485.93 1120 509.09C1158.08 522.68 1185.88 545.79 1185.88 560C1185.88 571.24 1152.94 560 1120 560C1050 560 1050 560 980 560C957.38 560 934.77 572.64 934.77 560" stroke="rgba(51, 121, 194, 0.58)" stroke-width="2"></path><path d="M1436.67 560C1436.67 532.86 1509.14 465.65 1540 465.65C1560.81 465.65 1564.66 537.48 1540 560C1512.99 584.66 1436.67 580.04 1436.67 560" stroke="rgba(51, 121, 194, 0.58)" stroke-width="2"></path><path d="M0 106.3C19.6 106.3 58.71 118.21 58.71 140C58.71 168.77 16.74 207.41 0 207.41C-12.62 207.41 0 173.7 0 140C0 123.15 -9.76 106.3 0 106.3" stroke="rgba(51, 121, 194, 0.58)" stroke-width="2"></path><path d="M140 78.54C115.5 78.54 89.69 25.51 89.69 0C89.69 -13.76 114.84 0 140 0C163.33 0 186.67 -13.28 186.67 0C186.67 25.99 163.99 78.54 140 78.54" stroke="rgba(51, 121, 194, 0.58)" stroke-width="2"></path><path d="M420 46.03C395.66 46.03 372 13.37 372 0C372 -9.65 396 0 420 0C445.46 0 470.91 -9.8 470.91 0C470.91 13.21 445.12 46.03 420 46.03" stroke="rgba(51, 121, 194, 0.58)" stroke-width="2"></path><path d="M700 12.07C692.21 12.07 685.11 3.4 685.11 0C685.11 -2.64 692.56 0 700 0C709.46 0 718.92 -2.76 718.92 0C718.92 3.27 709.12 12.07 700 12.07" stroke="rgba(51, 121, 194, 0.58)" stroke-width="2"></path><path d="M980 37.84C965.79 37.84 946.67 11.39 946.67 0C946.67 -7.53 963.34 0 980 0C989.46 0 998.92 -5.85 998.92 0C998.92 13.07 991.92 37.84 980 37.84" stroke="rgba(51, 121, 194, 0.58)" stroke-width="2"></path><path d="M1106 140C1106 135.9 1113.38 133.73 1120 133.73C1124.42 133.73 1128.08 136.24 1128.08 140C1128.08 145.21 1124.83 151.67 1120 151.67C1113.79 151.67 1106 144.87 1106 140" stroke="rgba(51, 121, 194, 0.58)" stroke-width="2"></path><path d="M1355.28 140C1355.28 120.47 1376.97 105.74 1400 105.74C1425.73 105.74 1452.79 120.09 1452.79 140C1452.79 163.62 1425.3 192.79 1400 192.79C1376.55 192.79 1355.28 163.99 1355.28 140" stroke="rgba(51, 121, 194, 0.58)" stroke-width="2"></path><path d="M122.5 280C122.5 275.07 129.13 266.86 140 266C207.88 260.61 210.04 268.91 280 267.5C350.04 266.09 351.5 255.72 420 260.35C443.9 261.97 444.31 266.88 464.8 280C514.31 311.7 516.26 350 560 350C594.38 350 585.29 308.36 621.03 280C655.29 252.82 662.77 238.93 700 238.93C726.7 238.93 740.04 251.67 748.89 280C768.31 342.21 773.09 360.49 756.54 420C748.64 448.42 726.18 435.12 700 455.85C637.77 505.12 642 513.67 579.72 560C572 565.74 569.86 560 560 560C528.18 560 522.67 573.73 496.36 560C452.67 537.21 455.08 486.96 420 486.96C389.81 486.96 401.83 541.21 365.81 560C331.83 577.73 322.9 560 280 560C257.07 560 234.14 576.35 234.14 560C234.14 509.85 253.77 490.83 280 427C282.54 420.83 291.67 425.2 291.67 420C291.67 410.03 289.6 405.3 280 396.67C213.77 337.16 211.63 336.79 140 283.73C132.88 278.45 122.5 283.94 122.5 280" stroke="rgba(51, 121, 194, 0.58)" stroke-width="2"></path><path d="M954.8 280C954.8 263.7 966.66 245 980 245C994.26 245 1010 263.95 1010 280C1010 293.33 994.49 303.77 980 303.77C966.89 303.77 954.8 293.09 954.8 280" stroke="rgba(51, 121, 194, 0.58)" stroke-width="2"></path><path d="M0 440C11.4 440 44.21 515.41 44.21 560C44.21 575.41 5.95 576.15 0 560C-16.15 516.15 -10.7 440 0 440" stroke="rgba(51, 121, 194, 0.58)" stroke-width="2"></path><path d="M1520 560C1520 554.75 1534.03 541.74 1540 541.74C1544.03 541.74 1544.77 555.64 1540 560C1534.77 564.77 1520 563.88 1520 560" stroke="rgba(51, 121, 194, 0.58)" stroke-width="2"></path></g><defs><mask id="SvgjsMask1000"><rect width="1440" height="560" fill="#ffffff"></rect></mask></defs></svg>